<svg xmlns="http://www.w3.org/2000/svg" viewBox="0 0 980.62 328.24"><defs><style>.cls-1{fill:#cfe3f5;}.cls-2{fill:#ea573e;}</style></defs><g id="Layer_2" data-name="Layer 2"><g id="Layer_1-2" data-name="Layer 1"><path class="cls-1" d="M40.75,192.21v131H0V138.89H2.93c16.49,0,33,0,49.47,0a4.39,4.39,0,0,1,4.35,2.41q37.44,61.42,75,122.78c.47.78,1,1.54,1.84,3V139c1.07,0,1.86-.11,2.66-.11,11.91,0,23.82,0,35.73-.05,2.1,0,2.66.63,2.66,2.69q-.07,89.73,0,179.47c0,.65-.07,1.3-.12,2.19-1,0-1.86.11-2.74.11-16,0-32,0-48,.06a4,4,0,0,1-3.94-2.23q-38.49-63-77.08-125.88C42.24,194.44,41.69,193.65,40.75,192.21Z"/><path class="cls-1" d="M208.73,139c1.05-.06,1.78-.14,2.51-.14,11.91,0,23.82.06,35.73-.06,2.31,0,2.71.78,2.71,2.87-.06,35.91,0,71.83-.07,107.74,0,10,2.16,19.25,8.47,27.11,9.06,11.29,21.12,15.45,35.15,13s22.93-11.07,27.72-24.23c2-5.47,2.39-11.19,2.39-17q0-52.87,0-105.75v-3.58h40.6a16,16,0,0,1,.23,1.91c0,38,.09,76-.12,114-.08,15.89-4.1,30.78-13.38,44a62.9,62.9,0,0,1-31.91,23.78,97,97,0,0,1-64.44,0c-20.46-7.1-34.15-21.33-41.14-41.9a90,90,0,0,1-4.43-29q-.08-55.26,0-110.5Z"/><path class="cls-2" d="M693.16,36.85,660.51,66.12Q628.79,94.56,597.07,123c-7.15,6.4-17.2,6-23.21-.78s-5.24-16.76,1.91-23.17Q628,52.16,680.27,5.24c6.68-6,15.11-7,21.83-2.15,2.81,2,5.88,3.79,8.41,6.13Q755.3,50.76,800,92.44c.54.51,1.12,1,1.91,1.69.93-.81,1.85-1.6,2.76-2.41Q852.46,48.85,900.28,6c9-8,22.54-4.64,26.19,6.54,2.22,6.81.33,12.64-4.92,17.38q-13.44,12.15-27,24.2-39.26,35.19-78.51,70.38c-.81.72-1.59,1.47-2.35,2.24-6.83,6.87-16.05,7.22-23.21.64-10.85-10-21.6-20.07-32.39-30.11L694.31,37.86Z"/><path class="cls-1" d="M384.26,304.7,413,273.08c3.65,3.2,6.88,6.77,10.78,9.31,13.57,8.82,28,10.7,42.9,3.6,10-4.74,13-16.08,6.76-24.51A25.09,25.09,0,0,0,462,253.32c-8.83-3.41-17.78-6.52-26.77-9.49-8.65-2.86-17.09-6.08-24.7-11.17-13.88-9.26-20.43-22.26-20.12-38.93.23-12.53,3.46-23.95,11.18-34,8.62-11.2,20.07-18.12,33.47-21.87,21-5.87,41.65-4.58,62,3,6.58,2.44,16.67,8.95,20.14,13l-27.89,30.51c-6.13-7.39-14.3-10.47-23.21-11.8-9.43-1.41-18.44-.08-26.48,5.46a15.55,15.55,0,0,0,.31,26c7.31,4.9,15.69,7.12,23.89,9.86,8.66,2.9,17.47,5.5,25.83,9.12,10.68,4.62,19,12.21,24,23,3.15,6.78,3.9,14.08,3.86,21.46-.07,13.17-3.28,25.35-11.47,36a55.69,55.69,0,0,1-26.41,19c-24.69,8.47-49.23,7.76-73.29-2.58C398.16,316.23,391.06,311,384.26,304.7Z"/><path class="cls-1" d="M720.82,242.53c-.13-6.86-2.56-12.44-8-16.49-9.75-7.23-20.31-6.88-31.09-2.91a41.28,41.28,0,0,0-15.19,10.28,26,26,0,0,0-1.78,2.28l-22-21a65,65,0,0,1,19.12-13.17,91.51,91.51,0,0,1,59.82-5.45c19.43,4.66,30,18,33.15,37.25a173.39,173.39,0,0,1,2.11,25.35c.3,20.74.1,41.5.1,62.24v2.2H721V307.62a9.72,9.72,0,0,0-1.28,1.19c-7,10.18-17.25,14.84-29,16.73-12.47,2-24.65,1-35.9-5.19-13.19-7.2-19.4-18.58-19.4-33.6,0-18.64,10.37-30.7,27.12-36.94,10.77-4,22-5.78,33.46-6.44,7.56-.43,15.14-.44,22.72-.64C719.33,242.71,720,242.61,720.82,242.53Zm-.05,25.78c-6.73,0-13.13-.08-19.53,0a44.58,44.58,0,0,0-7.18.8c-5.76,1-11.26,2.71-16.06,6.35-6.26,4.74-7.18,16.63,2.2,21.41,10.59,5.4,27.65,1.46,35-6.22C721.42,284.22,721.16,276.28,720.77,268.31Z"/><path class="cls-1" d="M975.21,209.94l-23.82,24.63a35.21,35.21,0,0,0-4.06-4.56c-8-6.34-16.85-8.4-26.64-4.67a8.31,8.31,0,0,0-5.77,8.23c0,3.91,2.38,6.26,5.8,7.26q12,3.49,24.06,6.45c7.16,1.74,14.11,3.88,20.39,7.85,11.32,7.15,15.62,17.68,15.44,30.75-.26,19.6-13.43,31.44-29.06,36.27a95.41,95.41,0,0,1-62-1.54A43.65,43.65,0,0,1,872.4,309l23.68-26.29c1.74,1.71,3.33,3.38,5,4.92,10.1,9.19,21.8,10.64,34.47,6.92,3.17-.93,5.43-3,5.65-6.56a7.09,7.09,0,0,0-4.66-7.56c-5.9-2.16-12-4-18-5.6-8.2-2.14-16.6-3.54-24.28-7.42-14.37-7.25-18.83-18.2-18.65-32.24.27-21.39,15.53-35.43,36.1-39.8a84.4,84.4,0,0,1,47.87,3.74A42.93,42.93,0,0,1,975.21,209.94Z"/><path class="cls-1" d="M625.48,289.92c0,10.59,0,20.91-.08,31.24,0,.67-1.13,1.68-1.93,1.93-10.9,3.44-22.1,3.77-33.37,3a51,51,0,0,1-19.67-5.14c-12-6.11-18-16.2-18.3-29.34-.41-20-.17-40-.2-60V228.3H527.18V196.75h24.66V159.47h39.3v3c0,10.58.05,21.16,0,31.74,0,2,.62,2.55,2.56,2.53,9.5-.08,19,0,28.49,0h3.15v31.39H591.49a8.68,8.68,0,0,0-.33,1.49c.11,15.91.18,31.82.4,47.73a23.82,23.82,0,0,0,1.23,6.6c2,6.42,7.07,8.61,13.17,9.31A38.76,38.76,0,0,0,625.48,289.92Z"/><path class="cls-1" d="M863.73,196.7v31.49h-34a12.42,12.42,0,0,0-.22,1.52c.11,15.92.19,31.83.41,47.74a23.06,23.06,0,0,0,1.29,6.58c2.25,7,8,9,14.49,9.23,6.14.23,12.3.07,18.14-3.45v9.48q0,10.62,0,21.25c0,1.1.08,2-1.42,2.43-16.94,4.54-33.92,5.5-50.56-.76C798,317,790.83,306.12,790.51,291.42c-.43-20-.16-40-.2-60v-3.22h-24.8V196.74h24.72V159.43H829.4c0,1,.12,1.95.12,2.91,0,10.58.06,21.17,0,31.75,0,2.11.66,2.67,2.7,2.65,9.49-.1,19,0,28.48,0Z"/></g></g></svg>